# xmcd
#
# Track frame offsets: 
#        150
#        22385
#        52211
#        76942
#        97607
#        115047
#        132775
#        161202
#        175561
#        200826
#        222113
#        245165
#        272844
#
# Disc length: 3942 seconds
#
# Revision: 0
# Processed by: cddbd v1.5.2PL0 Copyright (c) Steve Scherf et al.
# Submitted via: ExactAudioCopy v0.99pb3
#
DISCID=b90f640d
DTITLE=Dave Weld And The Imperial Flames - Burnin' Love
DYEAR=2010
DGENRE=Blues
TTITLE0=Sweet Shiny Brown Eyes
TTITLE1=Ramblin'
TTITLE2=Burnin' Love
TTITLE3=I Got Mad
TTITLE4=She's Mine
TTITLE5=Talk Dirty
TTITLE6=Donnie Lee
TTITLE7=Ed's Boogie
TTITLE8=Peace Of Mind
TTITLE9=Listen To Mama
TTITLE10=All Of These Things
TTITLE11=Things Are So Slow
TTITLE12=She's Lyin'
EXTD=
EXTT0=
EXTT1=
EXTT2=
EXTT3=
EXTT4=
EXTT5=
EXTT6=
EXTT7=
EXTT8=
EXTT9=
EXTT10=
EXTT11=
EXTT12=
PLAYORDER=
